<svg width="24" height="24" viewBox="0 0 24 24" fill="none" xmlns="http://www.w3.org/2000/svg">
<circle cx="12" cy="12" r="11.5" stroke="white"/>
<path d="M12.448 6.27999C12.448 5.92799 12.256 5.94399 12.176 5.94399H11.424C11.328 5.94399 11.152 5.92799 11.152 6.23199C11.152 6.39199 11.168 6.61599 11.168 6.69599C11.152 6.85599 11.152 7.03199 11.152 7.20799C11.152 7.20799 11.152 7.23999 11.152 7.31999C11.152 8.11999 11.264 12.84 11.264 13.528C11.264 13.752 11.168 14.152 11.664 14.152C12.128 14.152 12.176 14.216 12.176 13.656C12.192 13.528 12.16 13.352 12.176 13.144L12.256 11.368C12.272 11.016 12.272 10.648 12.272 10.312L12.304 9.87999C12.336 9.44799 12.336 9.01599 12.352 8.59999L12.448 6.27999ZM10.96 16.536C10.96 16.968 11.344 17.16 11.696 17.16C12.064 17.16 12.304 16.968 12.384 16.536C12.384 16.152 12.224 15.688 11.696 15.688C11.104 15.688 10.96 16.152 10.96 16.536Z" fill="white"/>
</svg>
