<svg width="36" height="36" viewBox="0 0 36 36" fill="none" xmlns="http://www.w3.org/2000/svg">
<rect width="36" height="36" rx="18" fill="#27629E"/>
<path d="M17.1843 20.0368C17.3738 20.2737 17.658 20.4 17.9422 20.4C18.2422 20.4 18.5264 20.2737 18.7001 20.0368L21.4159 16.7211C21.6527 16.4211 21.7001 16.0105 21.5422 15.6789C21.3843 15.3316 21.0369 15.1105 20.658 15.1105H18.9211V9.97895C18.9211 9.44211 18.479 9 17.9422 9C17.4054 9 16.9632 9.44211 16.9632 9.97895V15.0947H15.2264C14.8475 15.0947 14.5001 15.3158 14.3422 15.6632C14.1843 16.0105 14.2317 16.4211 14.4685 16.7053L17.1843 20.0368Z" fill="white"/>
<path d="M21.9053 19.7842C21.3684 19.7842 20.9263 20.2263 20.9263 20.7631V22.0263H14.9579V20.7789C14.9579 20.2421 14.5158 19.8 13.9789 19.8C13.4263 19.8 13 20.2421 13 20.7789V23.021C13 23.5579 13.4421 24 13.9789 24H21.9211C22.4579 24 22.9 23.5579 22.9 23.021V20.7789C22.9 20.2263 22.4579 19.7842 21.9053 19.7842Z" fill="white"/>
</svg>
