<svg width="40" height="40" viewBox="0 0 40 40" fill="none" xmlns="http://www.w3.org/2000/svg">
<path d="M20.591 23.6C18.453 23.6 16.719 21.933 16.719 19.875C16.719 17.818 18.453 16.15 20.591 16.15C22.729 16.15 24.463 17.818 24.463 19.875C24.463 21.933 22.729 23.601 20.591 23.601" fill="#023F85"/>
<path d="M25.05 16.06C24.9033 16.0629 24.7615 16.0075 24.6557 15.9058C24.5499 15.8042 24.4889 15.6647 24.486 15.518V12.898C24.486 12.599 24.739 12.356 25.05 12.356H27.772C28.082 12.356 28.335 12.599 28.335 12.898V15.518C28.3284 15.8227 28.0766 16.0646 27.772 16.059H25.05" fill="#023F85"/>
<path fill-rule="evenodd" clip-rule="evenodd" d="M0.432983 19.853C0.432983 9.128 9.13598 0.434998 19.873 0.434998C30.61 0.434998 39.313 9.128 39.313 19.852C39.313 30.577 30.61 39.272 19.873 39.272C9.13598 39.272 0.432983 30.577 0.432983 19.853ZM27.283 29.562C28.5567 29.5637 29.5908 28.5327 29.593 27.259V12.446C29.5919 11.8342 29.3478 11.248 28.9144 10.8162C28.481 10.3845 27.8937 10.1427 27.282 10.144H12.464C11.1906 10.1423 10.1567 11.1727 10.154 12.446V27.259C10.1567 28.5325 11.1905 29.5631 12.464 29.562H27.283Z" fill="#023F85"/>
<path d="M26.716 19.875C26.716 19.336 26.64 18.813 26.498 18.317H28.382V26.762C28.382 27.062 28.13 27.304 27.818 27.304H13.363C13.2166 27.3067 13.0751 27.2511 12.9697 27.1494C12.8643 27.0478 12.8037 26.9084 12.801 26.762V18.317H14.685C14.54 18.8236 14.4666 19.348 14.467 19.875C14.467 23.124 17.214 25.769 20.591 25.769C23.969 25.769 26.716 23.124 26.716 19.875Z" fill="#023F85"/>
</svg>
