<svg width="191" height="158" viewBox="0 0 191 158" fill="none" xmlns="http://www.w3.org/2000/svg">
<path d="M170.522 54.4804C171.746 52.246 171.096 49.5358 169.071 48.427C167.046 47.3181 164.413 48.2306 163.189 50.4649C161.966 52.6993 162.615 55.4095 164.64 56.5184C166.665 57.6272 169.299 56.7148 170.522 54.4804Z" fill="#D2277C"/>
<path d="M84.9858 42.9224L88.3245 37.907C88.6019 37.4675 88.5816 36.9505 88.298 36.5509C87.4426 35.4594 83.5491 32.0409 80.6943 31.421C80.1623 31.2901 79.5967 31.4373 79.1728 31.7844C77.833 32.9085 76.2369 35.4624 75.7808 37.034C75.6789 37.3951 75.9037 37.6631 76.221 37.7845C79.0327 38.8973 83.0672 42.0424 83.9712 43.0069C84.2595 43.2991 84.7766 43.2788 84.9858 42.9224Z" fill="#D8505F"/>
<path d="M86.4413 134.538C87.4261 132.963 86.8017 130.796 85.0468 129.699C83.2919 128.602 81.0709 128.989 80.0861 130.564C79.1014 132.139 79.7258 134.305 81.4807 135.402C83.2356 136.5 85.4566 136.112 86.4413 134.538Z" fill="#6DC7E4"/>
<path d="M33.4322 137.015L32.8467 140.065C32.6241 141.216 33.9425 142.049 34.8976 141.359L37.3633 139.575C37.4753 139.472 37.69 139.482 37.8169 139.53L40.5463 141.048C41.5961 141.632 42.78 140.63 42.3781 139.494L41.3881 136.568C41.3294 136.437 41.4023 136.246 41.5143 136.144L43.8429 134.052C44.6953 133.251 44.1565 131.807 42.9515 131.819L39.8538 131.834C39.7025 131.849 39.556 131.756 39.4777 131.581L38.2244 128.773C37.7349 127.676 36.2032 127.781 35.8098 128.903L34.8193 131.871C34.7707 131.998 34.6148 132.12 34.4636 132.135L31.4152 132.496C30.269 132.639 29.8372 134.147 30.7749 134.833L33.2755 136.664C33.3828 136.669 33.4612 136.844 33.4322 137.015Z" fill="#D2277C"/>
<path d="M135.711 21.1242L137.341 24.1853C137.957 25.3307 139.708 25.128 140.043 23.8737L140.921 20.5355C140.95 20.3647 141.105 20.2425 141.301 20.2081L144.749 19.5636C146.07 19.342 146.404 17.6145 145.252 16.9187L142.322 15.0695C142.175 14.977 142.097 14.8015 142.106 14.5869L142.603 11.1029C142.811 9.80007 141.258 8.91464 140.23 9.79436L137.531 11.9988C137.375 12.121 137.18 12.1554 137.034 12.063L133.919 10.5068C132.718 9.93786 131.442 11.0863 131.902 12.3539L133.156 15.6351C133.235 15.8106 133.162 16.001 133.05 16.1036L130.639 18.6003C129.694 19.5482 130.443 21.1081 131.735 21.0573L135.228 20.8664C135.443 20.8758 135.633 20.9487 135.711 21.1242Z" fill="#6DC7E4"/>
<path d="M101.58 75.254C102.442 73.3724 101.772 71.2198 100.084 70.4461C98.3949 69.6724 96.3271 70.5705 95.465 72.4521C94.6028 74.3338 95.2728 76.4864 96.9615 77.2601C98.6501 78.0338 100.718 77.1356 101.58 75.254Z" fill="white"/>
<path d="M126.736 102.632L130.586 106.543C130.977 106.947 131.553 107.059 132.06 106.78C133.444 106.109 136.14 104.486 137.452 101.532C137.69 101.005 137.675 100.38 137.376 99.8296C136.481 98.1773 134.913 96.6674 133.253 95.7773C132.916 95.6119 132.545 95.7247 132.336 96.0812C130.516 98.8403 128.089 100.713 126.851 101.476C126.476 101.696 126.365 102.271 126.736 102.632Z" fill="#D2277C"/>
</svg>
