<svg width="142" height="186" viewBox="0 0 142 186" fill="none" xmlns="http://www.w3.org/2000/svg">
<path d="M85.0438 170.717C87.1014 172.219 89.8728 171.925 91.2339 170.06C92.595 168.196 92.0304 165.466 89.9728 163.964C87.9152 162.463 85.1438 162.757 83.7826 164.621C82.4215 166.486 82.9861 169.215 85.0438 170.717Z" fill="#D2277C"/>
<path d="M107.554 87.3905L112.096 91.349C112.496 91.6809 113.011 91.7275 113.444 91.4979C114.637 90.7906 118.53 87.3714 119.513 84.6206C119.712 84.11 119.639 83.53 119.349 83.0649C118.408 81.5911 116.081 79.6785 114.582 79.0232C114.237 78.8755 113.942 79.0638 113.781 79.3628C112.314 82.0072 108.674 85.6016 107.601 86.3735C107.274 86.6216 107.227 87.1369 107.554 87.3905Z" fill="#D8505F"/>
<path d="M16.5182 76.9997C17.9527 78.1796 20.1815 77.8403 21.4963 76.2418C22.8111 74.6433 22.714 72.3909 21.2794 71.211C19.8449 70.0311 17.6161 70.3704 16.3013 71.9689C14.9865 73.5674 15.0836 75.8197 16.5182 76.9997Z" fill="#6DC7E4"/>
<path d="M20.909 24.1146L17.9602 23.14C16.847 22.7705 15.8515 23.9705 16.4117 25.0066L17.8627 27.6821C17.95 27.8065 17.913 28.0181 17.8484 28.1377L15.9908 30.6482C15.2763 31.6138 16.1169 32.9171 17.2953 32.6654L20.3242 32.0616C20.4623 32.0204 20.6417 32.1172 20.7289 32.2416L22.5022 34.8208C23.1868 35.7697 24.6875 35.4217 24.8316 34.2254L25.2172 31.1517C25.222 30.9998 25.3326 30.8665 25.5168 30.8115L28.4631 29.9314C29.614 29.5876 29.7079 28.0553 28.6455 27.5202L25.8307 26.1546C25.7111 26.09 25.6101 25.9196 25.6149 25.7678L25.6507 22.6983C25.6567 21.5432 24.217 20.9202 23.4153 21.7614L21.2772 24.0046C21.2587 24.1104 21.0746 24.1654 20.909 24.1146Z" fill="#D2277C"/>
<path d="M122.617 140.507L119.371 141.727C118.156 142.19 118.131 143.953 119.331 144.447L122.528 145.748C122.694 145.799 122.795 145.97 122.804 146.167L122.997 149.67C123.046 151.009 124.716 151.563 125.555 150.51L127.767 147.844C127.878 147.711 128.062 147.656 128.274 147.693L131.664 148.636C132.929 149.01 134.008 147.584 133.268 146.452L131.431 143.49C131.33 143.32 131.321 143.122 131.432 142.989L133.377 140.101C134.096 138.983 133.122 137.569 131.806 137.862L128.39 138.682C128.206 138.737 128.027 138.64 127.939 138.516L125.775 135.803C124.957 134.743 123.314 135.284 123.197 136.573L122.935 140.061C122.898 140.272 122.801 140.452 122.617 140.507Z" fill="#6DC7E4"/>
<path d="M73.3496 99.6693C75.1041 100.767 77.3252 100.381 78.3105 98.8064C79.2959 97.2318 78.6724 95.0653 76.9179 93.9674C75.1634 92.8694 72.9423 93.2557 71.9569 94.8303C70.9715 96.4048 71.5951 98.5714 73.3496 99.6693Z" fill="white"/>
<path d="M42.9516 121.078L38.5757 124.391C38.1243 124.726 37.9395 125.283 38.1506 125.822C38.6367 127.281 39.8988 130.163 42.658 131.847C43.15 132.151 43.7712 132.216 44.3559 131.991C46.1101 131.317 47.8099 129.957 48.907 128.425C49.1145 128.113 49.0505 127.731 48.7241 127.477C46.2232 125.316 44.68 122.668 44.0834 121.342C43.9136 120.941 43.357 120.756 42.9516 121.078Z" fill="#D2277C"/>
</svg>
