<svg width="36" height="36" viewBox="0 0 36 36" fill="none" xmlns="http://www.w3.org/2000/svg">
<rect width="36" height="36" rx="18" fill="#F7931E"/>
<path fill-rule="evenodd" clip-rule="evenodd" d="M13.2526 12.7652C13.2526 10.189 15.3416 8.09998 17.9178 8.09998C20.494 8.09998 22.583 10.189 22.583 12.7652C22.583 15.3414 20.494 17.4303 17.9178 17.4303C15.3416 17.4303 13.2526 15.3414 13.2526 12.7652ZM15.989 12.7652C15.989 13.833 16.8499 14.694 17.9178 14.694C18.979 14.694 19.8466 13.833 19.8466 12.7652C19.8466 11.6973 18.9856 10.8363 17.9178 10.8363C16.8499 10.8363 15.989 11.6973 15.989 12.7652ZM22.6099 19.8264C22.5498 19.8798 21.4352 20.7608 19.5665 21.1412L22.383 23.931C22.8768 24.4249 22.8768 25.2324 22.383 25.7263C21.8891 26.2202 21.0815 26.2202 20.5876 25.7263L17.8513 23.0634L15.3685 25.713C15.1216 25.9733 14.7879 26.1001 14.4542 26.1001C14.1338 26.1001 13.8201 25.9866 13.5732 25.7463C13.0659 25.2591 13.0526 24.4582 13.5398 23.951L16.2161 21.1546C14.3006 20.7808 13.1327 19.8731 13.0726 19.8264C12.532 19.3859 12.4386 18.5917 12.8791 18.0444C13.3196 17.5038 14.1138 17.4104 14.661 17.8509C14.6677 17.8642 15.8891 18.7786 17.8513 18.7786C19.7282 18.7786 20.9029 17.9358 21.0131 17.8568C21.0181 17.8532 21.0209 17.8512 21.0215 17.8509C21.5687 17.4104 22.3629 17.4972 22.8034 18.0444C23.2439 18.5917 23.1572 19.3859 22.6099 19.8264Z" fill="white"/>
</svg>
