<svg width="36" height="36" viewBox="0 0 36 36" fill="none" xmlns="http://www.w3.org/2000/svg">
<rect width="36" height="36" rx="18" fill="#5181B8"/>
<path d="M25.8633 13.3247C25.9911 12.8984 25.8633 12.6 25.2664 12.6H23.2769C22.7654 12.6 22.538 12.87 22.4101 13.1684C22.4101 13.1684 21.4012 15.641 19.9659 17.2326C19.4969 17.7016 19.298 17.8437 19.0422 17.8437C18.9143 17.8437 18.7296 17.7016 18.7296 17.2752V13.3247C18.7296 12.8131 18.5875 12.6 18.1612 12.6H15.0348C14.7222 12.6 14.5233 12.8416 14.5233 13.0547C14.5233 13.5379 15.2338 13.6516 15.319 14.9873V17.9147C15.319 18.5542 15.2054 18.6679 14.9496 18.6679C14.2817 18.6679 12.6333 16.1952 11.6669 13.3531C11.468 12.8273 11.2833 12.6 10.7717 12.6H8.7822C8.21378 12.6 8.1001 12.87 8.1001 13.1684C8.1001 13.6942 8.76799 16.3089 11.2406 19.7621C12.889 22.121 15.2054 23.4 17.3085 23.4C18.5733 23.4 18.7296 23.1158 18.7296 22.6326V20.8421C18.7296 20.2737 18.8433 20.16 19.2554 20.16C19.5538 20.16 20.0511 20.3021 21.2306 21.4389C22.5806 22.7889 22.808 23.4 23.5612 23.4H25.5506C26.119 23.4 26.4033 23.1158 26.2327 22.5616C26.048 22.0073 25.4085 21.1973 24.5559 20.231C24.0869 19.6768 23.3906 19.0942 23.1917 18.7958C22.8933 18.4121 22.9785 18.2416 23.1917 17.9147C23.1917 17.9005 25.6217 14.49 25.8633 13.3247Z" fill="white"/>
</svg>
