<svg width="40" height="40" viewBox="0 0 40 40" fill="none" xmlns="http://www.w3.org/2000/svg">
<path fill-rule="evenodd" clip-rule="evenodd" d="M0.411011 19.853C0.411011 9.128 9.11401 0.434998 19.851 0.434998C30.588 0.434998 39.291 9.128 39.291 19.852C39.291 30.577 30.588 39.272 19.851 39.272C9.11401 39.272 0.411011 30.577 0.411011 19.853ZM27.1371 21.0979C27.7972 20.2095 29.9536 17.3074 30.213 16.215C30.379 15.739 30.213 15.393 29.479 15.393H27.041C26.425 15.393 26.141 15.696 25.975 16.021C25.975 16.021 24.721 18.787 22.969 20.582C22.401 21.101 22.14 21.273 21.833 21.273C21.667 21.273 21.453 21.101 21.453 20.625V16.193C21.453 15.631 21.264 15.371 20.743 15.371H16.908C16.53 15.371 16.293 15.631 16.293 15.891C16.293 16.0977 16.4213 16.2443 16.5851 16.4314C16.8492 16.7331 17.2054 17.1401 17.264 18.074V21.36C17.264 22.073 17.122 22.203 16.814 22.203C15.985 22.203 13.973 19.414 12.766 16.237C12.529 15.61 12.292 15.372 11.676 15.372H9.21501C8.50501 15.372 8.38501 15.675 8.38501 15.999C8.38501 16.583 9.21501 19.523 12.245 23.413C14.257 26.073 17.122 27.499 19.702 27.499C21.264 27.499 21.453 27.175 21.453 26.634V24.624C21.453 23.976 21.596 23.867 22.093 23.867C22.448 23.867 23.087 24.04 24.531 25.316C25.0267 25.7689 25.3996 26.1481 25.7034 26.4572C26.4152 27.1811 26.7484 27.52 27.396 27.52H29.834C30.544 27.52 30.876 27.197 30.686 26.57C30.473 25.943 29.668 25.034 28.626 23.954C28.3388 23.6476 27.9783 23.3245 27.6586 23.038C27.3471 22.7588 27.0743 22.5144 26.946 22.354C26.591 21.922 26.686 21.75 26.946 21.36C26.9424 21.36 27.0135 21.2643 27.1371 21.0979Z" fill="#023F85"/>
</svg>
