<svg width="40" height="40" viewBox="0 0 40 40" fill="none" xmlns="http://www.w3.org/2000/svg">
<path fill-rule="evenodd" clip-rule="evenodd" d="M0.421997 19.853C0.421997 9.128 9.125 0.434998 19.862 0.434998C30.599 0.434998 39.302 9.128 39.302 19.852C39.302 30.577 30.599 39.272 19.862 39.272C9.125 39.272 0.421997 30.577 0.421997 19.853ZM29.388 23.729C29.388 23.729 29.582 22.158 29.582 20.586V19.113C29.582 17.541 29.388 15.97 29.388 15.97C29.388 15.97 29.198 14.632 28.615 14.042C27.9479 13.3433 27.2057 13.2729 26.7885 13.2333C26.7442 13.2291 26.7035 13.2252 26.667 13.221C23.946 13.024 19.866 13.024 19.866 13.024H19.858C19.858 13.024 15.777 13.024 13.057 13.221C13.0205 13.2252 12.9799 13.2291 12.9357 13.2333C12.5182 13.2728 11.7772 13.343 11.109 14.042C10.526 14.632 10.336 15.97 10.336 15.97C10.336 15.97 10.142 17.541 10.142 19.113V20.586C10.142 22.158 10.336 23.729 10.336 23.729C10.336 23.729 10.526 25.067 11.109 25.657C11.7218 26.298 12.4947 26.3909 12.9872 26.4502C13.0887 26.4624 13.1782 26.4732 13.252 26.487C14.808 26.635 19.862 26.681 19.862 26.681C19.862 26.681 23.947 26.675 26.667 26.478C26.7035 26.4738 26.7441 26.4699 26.7883 26.4657C27.2058 26.4262 27.9468 26.3559 28.615 25.657C29.198 25.067 29.388 23.729 29.388 23.729Z" fill="#023F85"/>
<path d="M18.04 22.882L23.48 20.164L18.04 17.426V22.882Z" fill="#023F85"/>
</svg>
